<mxfile host="Electron" agent="Mozilla/5.0 (Windows NT 10.0; Win64; x64) AppleWebKit/537.36 (KHTML, like Gecko) draw.io/24.7.5 Chrome/126.0.6478.183 Electron/31.3.0 Safari/537.36" version="24.7.5">
  <diagram id="C5RBs43oDa-KdzZeNtuy" name="Page-1">
    <mxGraphModel dx="902" dy="992" grid="1" gridSize="10" guides="1" tooltips="1" connect="1" arrows="1" fold="1" page="1" pageScale="1" pageWidth="827" pageHeight="1169" math="0" shadow="0">
      <root>
        <mxCell id="WIyWlLk6GJQsqaUBKTNV-0" />
        <mxCell id="WIyWlLk6GJQsqaUBKTNV-1" parent="WIyWlLk6GJQsqaUBKTNV-0" />
        <mxCell id="zkfFHV4jXpPFQw0GAbJ--0" value="Team" style="swimlane;fontStyle=0;align=center;verticalAlign=top;childLayout=stackLayout;horizontal=1;startSize=26;horizontalStack=0;resizeParent=1;resizeLast=0;collapsible=1;marginBottom=0;rounded=0;shadow=0;strokeWidth=1;" parent="WIyWlLk6GJQsqaUBKTNV-1" vertex="1">
          <mxGeometry x="30" y="192" width="140" height="64" as="geometry">
            <mxRectangle x="230" y="140" width="160" height="26" as="alternateBounds" />
          </mxGeometry>
        </mxCell>
        <mxCell id="zkfFHV4jXpPFQw0GAbJ--1" value="+ Name: string" style="text;align=left;verticalAlign=top;spacingLeft=4;spacingRight=4;overflow=hidden;rotatable=0;points=[[0,0.5],[1,0.5]];portConstraint=eastwest;" parent="zkfFHV4jXpPFQw0GAbJ--0" vertex="1">
          <mxGeometry y="26" width="140" height="26" as="geometry" />
        </mxCell>
        <mxCell id="zkfFHV4jXpPFQw0GAbJ--4" value="" style="line;html=1;strokeWidth=1;align=left;verticalAlign=middle;spacingTop=-1;spacingLeft=3;spacingRight=3;rotatable=0;labelPosition=right;points=[];portConstraint=eastwest;" parent="zkfFHV4jXpPFQw0GAbJ--0" vertex="1">
          <mxGeometry y="52" width="140" height="12" as="geometry" />
        </mxCell>
        <mxCell id="H_XOSMSPg-KsRmXVHSaF-0" value="Game" style="swimlane;fontStyle=0;childLayout=stackLayout;horizontal=1;startSize=26;fillColor=none;horizontalStack=0;resizeParent=1;resizeParentMax=0;resizeLast=0;collapsible=1;marginBottom=0;whiteSpace=wrap;html=1;" parent="WIyWlLk6GJQsqaUBKTNV-1" vertex="1">
          <mxGeometry x="230" y="388" width="160" height="260" as="geometry" />
        </mxCell>
        <mxCell id="H_XOSMSPg-KsRmXVHSaF-2" value="+ ScoreTeam1: Int" style="text;strokeColor=none;fillColor=none;align=left;verticalAlign=top;spacingLeft=4;spacingRight=4;overflow=hidden;rotatable=0;points=[[0,0.5],[1,0.5]];portConstraint=eastwest;whiteSpace=wrap;html=1;" parent="H_XOSMSPg-KsRmXVHSaF-0" vertex="1">
          <mxGeometry y="26" width="160" height="26" as="geometry" />
        </mxCell>
        <mxCell id="aL4EJA-Xg9JrNChf85ZP-23" value="+ ScoreTeam2: Int" style="text;strokeColor=none;fillColor=none;align=left;verticalAlign=top;spacingLeft=4;spacingRight=4;overflow=hidden;rotatable=0;points=[[0,0.5],[1,0.5]];portConstraint=eastwest;whiteSpace=wrap;html=1;" parent="H_XOSMSPg-KsRmXVHSaF-0" vertex="1">
          <mxGeometry y="52" width="160" height="26" as="geometry" />
        </mxCell>
        <mxCell id="aL4EJA-Xg9JrNChf85ZP-25" value="+ Type: GameType" style="text;strokeColor=none;fillColor=none;align=left;verticalAlign=top;spacingLeft=4;spacingRight=4;overflow=hidden;rotatable=0;points=[[0,0.5],[1,0.5]];portConstraint=eastwest;whiteSpace=wrap;html=1;" parent="H_XOSMSPg-KsRmXVHSaF-0" vertex="1">
          <mxGeometry y="78" width="160" height="26" as="geometry" />
        </mxCell>
        <mxCell id="aL4EJA-Xg9JrNChf85ZP-26" value="+ Date: DateTime" style="text;strokeColor=none;fillColor=none;align=left;verticalAlign=top;spacingLeft=4;spacingRight=4;overflow=hidden;rotatable=0;points=[[0,0.5],[1,0.5]];portConstraint=eastwest;whiteSpace=wrap;html=1;" parent="H_XOSMSPg-KsRmXVHSaF-0" vertex="1">
          <mxGeometry y="104" width="160" height="26" as="geometry" />
        </mxCell>
        <mxCell id="aL4EJA-Xg9JrNChf85ZP-27" value="+ Place: string" style="text;strokeColor=none;fillColor=none;align=left;verticalAlign=top;spacingLeft=4;spacingRight=4;overflow=hidden;rotatable=0;points=[[0,0.5],[1,0.5]];portConstraint=eastwest;whiteSpace=wrap;html=1;" parent="H_XOSMSPg-KsRmXVHSaF-0" vertex="1">
          <mxGeometry y="130" width="160" height="26" as="geometry" />
        </mxCell>
        <mxCell id="H_XOSMSPg-KsRmXVHSaF-16" value="" style="line;html=1;strokeWidth=1;align=left;verticalAlign=middle;spacingTop=-1;spacingLeft=3;spacingRight=3;rotatable=0;labelPosition=right;points=[];portConstraint=eastwest;" parent="H_XOSMSPg-KsRmXVHSaF-0" vertex="1">
          <mxGeometry y="156" width="160" height="8" as="geometry" />
        </mxCell>
        <mxCell id="H_XOSMSPg-KsRmXVHSaF-15" value="&lt;i&gt;+ SelectTwoTeams(teams: List&amp;lt;Team&amp;gt;): (Team, Team)&lt;/i&gt;" style="text;strokeColor=none;fillColor=none;align=left;verticalAlign=top;spacingLeft=4;spacingRight=4;overflow=hidden;rotatable=0;points=[[0,0.5],[1,0.5]];portConstraint=eastwest;whiteSpace=wrap;html=1;" parent="H_XOSMSPg-KsRmXVHSaF-0" vertex="1">
          <mxGeometry y="164" width="160" height="42" as="geometry" />
        </mxCell>
        <mxCell id="H_XOSMSPg-KsRmXVHSaF-22" value="+ StartGame(): void" style="text;strokeColor=none;fillColor=none;align=left;verticalAlign=top;spacingLeft=4;spacingRight=4;overflow=hidden;rotatable=0;points=[[0,0.5],[1,0.5]];portConstraint=eastwest;whiteSpace=wrap;html=1;" parent="H_XOSMSPg-KsRmXVHSaF-0" vertex="1">
          <mxGeometry y="206" width="160" height="24" as="geometry" />
        </mxCell>
        <mxCell id="H_XOSMSPg-KsRmXVHSaF-17" value="+ EndGame(): void" style="text;strokeColor=none;fillColor=none;align=left;verticalAlign=top;spacingLeft=4;spacingRight=4;overflow=hidden;rotatable=0;points=[[0,0.5],[1,0.5]];portConstraint=eastwest;whiteSpace=wrap;html=1;" parent="H_XOSMSPg-KsRmXVHSaF-0" vertex="1">
          <mxGeometry y="230" width="160" height="30" as="geometry" />
        </mxCell>
        <mxCell id="H_XOSMSPg-KsRmXVHSaF-4" value="Referee" style="swimlane;fontStyle=0;childLayout=stackLayout;horizontal=1;startSize=26;fillColor=none;horizontalStack=0;resizeParent=1;resizeParentMax=0;resizeLast=0;collapsible=1;marginBottom=0;whiteSpace=wrap;html=1;" parent="WIyWlLk6GJQsqaUBKTNV-1" vertex="1">
          <mxGeometry x="430" y="702" width="140" height="92" as="geometry" />
        </mxCell>
        <mxCell id="H_XOSMSPg-KsRmXVHSaF-5" value="+ Name: string" style="text;strokeColor=none;fillColor=none;align=left;verticalAlign=top;spacingLeft=4;spacingRight=4;overflow=hidden;rotatable=0;points=[[0,0.5],[1,0.5]];portConstraint=eastwest;whiteSpace=wrap;html=1;" parent="H_XOSMSPg-KsRmXVHSaF-4" vertex="1">
          <mxGeometry y="26" width="140" height="26" as="geometry" />
        </mxCell>
        <mxCell id="H_XOSMSPg-KsRmXVHSaF-6" value="+ PersonalNumber: int" style="text;strokeColor=none;fillColor=none;align=left;verticalAlign=top;spacingLeft=4;spacingRight=4;overflow=hidden;rotatable=0;points=[[0,0.5],[1,0.5]];portConstraint=eastwest;whiteSpace=wrap;html=1;" parent="H_XOSMSPg-KsRmXVHSaF-4" vertex="1">
          <mxGeometry y="52" width="140" height="28" as="geometry" />
        </mxCell>
        <mxCell id="aL4EJA-Xg9JrNChf85ZP-35" value="" style="line;html=1;strokeWidth=1;align=left;verticalAlign=middle;spacingTop=-1;spacingLeft=3;spacingRight=3;rotatable=0;labelPosition=right;points=[];portConstraint=eastwest;" parent="H_XOSMSPg-KsRmXVHSaF-4" vertex="1">
          <mxGeometry y="80" width="140" height="12" as="geometry" />
        </mxCell>
        <mxCell id="H_XOSMSPg-KsRmXVHSaF-8" value="Player" style="swimlane;fontStyle=0;childLayout=stackLayout;horizontal=1;startSize=26;fillColor=none;horizontalStack=0;resizeParent=1;resizeParentMax=0;resizeLast=0;collapsible=1;marginBottom=0;whiteSpace=wrap;html=1;" parent="WIyWlLk6GJQsqaUBKTNV-1" vertex="1">
          <mxGeometry x="30" y="10" width="140" height="116" as="geometry" />
        </mxCell>
        <mxCell id="H_XOSMSPg-KsRmXVHSaF-9" value="+ Name: string" style="text;strokeColor=none;fillColor=none;align=left;verticalAlign=top;spacingLeft=4;spacingRight=4;overflow=hidden;rotatable=0;points=[[0,0.5],[1,0.5]];portConstraint=eastwest;whiteSpace=wrap;html=1;" parent="H_XOSMSPg-KsRmXVHSaF-8" vertex="1">
          <mxGeometry y="26" width="140" height="26" as="geometry" />
        </mxCell>
        <mxCell id="H_XOSMSPg-KsRmXVHSaF-10" value="+ PersonalNumber: Int" style="text;strokeColor=none;fillColor=none;align=left;verticalAlign=top;spacingLeft=4;spacingRight=4;overflow=hidden;rotatable=0;points=[[0,0.5],[1,0.5]];portConstraint=eastwest;whiteSpace=wrap;html=1;" parent="H_XOSMSPg-KsRmXVHSaF-8" vertex="1">
          <mxGeometry y="52" width="140" height="26" as="geometry" />
        </mxCell>
        <mxCell id="H_XOSMSPg-KsRmXVHSaF-11" value="+ Goals: Int" style="text;strokeColor=none;fillColor=none;align=left;verticalAlign=top;spacingLeft=4;spacingRight=4;overflow=hidden;rotatable=0;points=[[0,0.5],[1,0.5]];portConstraint=eastwest;whiteSpace=wrap;html=1;" parent="H_XOSMSPg-KsRmXVHSaF-8" vertex="1">
          <mxGeometry y="78" width="140" height="26" as="geometry" />
        </mxCell>
        <mxCell id="aL4EJA-Xg9JrNChf85ZP-30" value="" style="line;html=1;strokeWidth=1;align=left;verticalAlign=middle;spacingTop=-1;spacingLeft=3;spacingRight=3;rotatable=0;labelPosition=right;points=[];portConstraint=eastwest;" parent="H_XOSMSPg-KsRmXVHSaF-8" vertex="1">
          <mxGeometry y="104" width="140" height="12" as="geometry" />
        </mxCell>
        <mxCell id="aL4EJA-Xg9JrNChf85ZP-0" value="&amp;lt;&amp;lt;enum&amp;gt;&amp;gt;&lt;div&gt;RefereeRole&lt;/div&gt;" style="swimlane;fontStyle=0;childLayout=stackLayout;horizontal=1;startSize=30;fillColor=none;horizontalStack=0;resizeParent=1;resizeParentMax=0;resizeLast=0;collapsible=1;marginBottom=0;whiteSpace=wrap;html=1;" parent="WIyWlLk6GJQsqaUBKTNV-1" vertex="1">
          <mxGeometry x="687" y="10" width="140" height="198" as="geometry" />
        </mxCell>
        <mxCell id="aL4EJA-Xg9JrNChf85ZP-1" value="+&amp;nbsp;MainReferee" style="text;strokeColor=none;fillColor=none;align=left;verticalAlign=top;spacingLeft=4;spacingRight=4;overflow=hidden;rotatable=0;points=[[0,0.5],[1,0.5]];portConstraint=eastwest;whiteSpace=wrap;html=1;" parent="aL4EJA-Xg9JrNChf85ZP-0" vertex="1">
          <mxGeometry y="30" width="140" height="26" as="geometry" />
        </mxCell>
        <mxCell id="aL4EJA-Xg9JrNChf85ZP-2" value="+ Assistant1" style="text;strokeColor=none;fillColor=none;align=left;verticalAlign=top;spacingLeft=4;spacingRight=4;overflow=hidden;rotatable=0;points=[[0,0.5],[1,0.5]];portConstraint=eastwest;whiteSpace=wrap;html=1;" parent="aL4EJA-Xg9JrNChf85ZP-0" vertex="1">
          <mxGeometry y="56" width="140" height="26" as="geometry" />
        </mxCell>
        <mxCell id="aL4EJA-Xg9JrNChf85ZP-7" value="+ Assistant2&lt;div&gt;&lt;br&gt;&lt;/div&gt;" style="text;strokeColor=none;fillColor=none;align=left;verticalAlign=top;spacingLeft=4;spacingRight=4;overflow=hidden;rotatable=0;points=[[0,0.5],[1,0.5]];portConstraint=eastwest;whiteSpace=wrap;html=1;" parent="aL4EJA-Xg9JrNChf85ZP-0" vertex="1">
          <mxGeometry y="82" width="140" height="26" as="geometry" />
        </mxCell>
        <mxCell id="aL4EJA-Xg9JrNChf85ZP-8" value="+ Assistant3" style="text;strokeColor=none;fillColor=none;align=left;verticalAlign=top;spacingLeft=4;spacingRight=4;overflow=hidden;rotatable=0;points=[[0,0.5],[1,0.5]];portConstraint=eastwest;whiteSpace=wrap;html=1;" parent="aL4EJA-Xg9JrNChf85ZP-0" vertex="1">
          <mxGeometry y="108" width="140" height="26" as="geometry" />
        </mxCell>
        <mxCell id="aL4EJA-Xg9JrNChf85ZP-9" value="+ Assistant4" style="text;strokeColor=none;fillColor=none;align=left;verticalAlign=top;spacingLeft=4;spacingRight=4;overflow=hidden;rotatable=0;points=[[0,0.5],[1,0.5]];portConstraint=eastwest;whiteSpace=wrap;html=1;" parent="aL4EJA-Xg9JrNChf85ZP-0" vertex="1">
          <mxGeometry y="134" width="140" height="26" as="geometry" />
        </mxCell>
        <mxCell id="aL4EJA-Xg9JrNChf85ZP-10" value="+ CoachCalmer" style="text;strokeColor=none;fillColor=none;align=left;verticalAlign=top;spacingLeft=4;spacingRight=4;overflow=hidden;rotatable=0;points=[[0,0.5],[1,0.5]];portConstraint=eastwest;whiteSpace=wrap;html=1;" parent="aL4EJA-Xg9JrNChf85ZP-0" vertex="1">
          <mxGeometry y="160" width="140" height="26" as="geometry" />
        </mxCell>
        <mxCell id="aL4EJA-Xg9JrNChf85ZP-33" value="" style="line;html=1;strokeWidth=1;align=left;verticalAlign=middle;spacingTop=-1;spacingLeft=3;spacingRight=3;rotatable=0;labelPosition=right;points=[];portConstraint=eastwest;" parent="aL4EJA-Xg9JrNChf85ZP-0" vertex="1">
          <mxGeometry y="186" width="140" height="12" as="geometry" />
        </mxCell>
        <mxCell id="aL4EJA-Xg9JrNChf85ZP-4" value="&amp;lt;&amp;lt;enum&amp;gt;&amp;gt;&lt;div&gt;GameType&lt;/div&gt;" style="swimlane;fontStyle=0;childLayout=stackLayout;horizontal=1;startSize=30;fillColor=none;horizontalStack=0;resizeParent=1;resizeParentMax=0;resizeLast=0;collapsible=1;marginBottom=0;whiteSpace=wrap;html=1;" parent="WIyWlLk6GJQsqaUBKTNV-1" vertex="1">
          <mxGeometry x="530" y="10" width="140" height="94" as="geometry" />
        </mxCell>
        <mxCell id="aL4EJA-Xg9JrNChf85ZP-5" value="GROUPESTAGE" style="text;strokeColor=none;fillColor=none;align=left;verticalAlign=top;spacingLeft=4;spacingRight=4;overflow=hidden;rotatable=0;points=[[0,0.5],[1,0.5]];portConstraint=eastwest;whiteSpace=wrap;html=1;" parent="aL4EJA-Xg9JrNChf85ZP-4" vertex="1">
          <mxGeometry y="30" width="140" height="26" as="geometry" />
        </mxCell>
        <mxCell id="aL4EJA-Xg9JrNChf85ZP-6" value="FINALROUND" style="text;strokeColor=none;fillColor=none;align=left;verticalAlign=top;spacingLeft=4;spacingRight=4;overflow=hidden;rotatable=0;points=[[0,0.5],[1,0.5]];portConstraint=eastwest;whiteSpace=wrap;html=1;" parent="aL4EJA-Xg9JrNChf85ZP-4" vertex="1">
          <mxGeometry y="56" width="140" height="26" as="geometry" />
        </mxCell>
        <mxCell id="aL4EJA-Xg9JrNChf85ZP-32" value="" style="line;html=1;strokeWidth=1;align=left;verticalAlign=middle;spacingTop=-1;spacingLeft=3;spacingRight=3;rotatable=0;labelPosition=right;points=[];portConstraint=eastwest;" parent="aL4EJA-Xg9JrNChf85ZP-4" vertex="1">
          <mxGeometry y="82" width="140" height="12" as="geometry" />
        </mxCell>
        <mxCell id="aL4EJA-Xg9JrNChf85ZP-12" value="StaffMember" style="swimlane;fontStyle=0;childLayout=stackLayout;horizontal=1;startSize=26;fillColor=none;horizontalStack=0;resizeParent=1;resizeParentMax=0;resizeLast=0;collapsible=1;marginBottom=0;whiteSpace=wrap;html=1;" parent="WIyWlLk6GJQsqaUBKTNV-1" vertex="1">
          <mxGeometry x="170" y="704" width="140" height="64" as="geometry" />
        </mxCell>
        <mxCell id="aL4EJA-Xg9JrNChf85ZP-14" value="+ Role: RefereeRole" style="text;strokeColor=none;fillColor=none;align=left;verticalAlign=top;spacingLeft=4;spacingRight=4;overflow=hidden;rotatable=0;points=[[0,0.5],[1,0.5]];portConstraint=eastwest;whiteSpace=wrap;html=1;" parent="aL4EJA-Xg9JrNChf85ZP-12" vertex="1">
          <mxGeometry y="26" width="140" height="26" as="geometry" />
        </mxCell>
        <mxCell id="aL4EJA-Xg9JrNChf85ZP-36" value="" style="line;html=1;strokeWidth=1;align=left;verticalAlign=middle;spacingTop=-1;spacingLeft=3;spacingRight=3;rotatable=0;labelPosition=right;points=[];portConstraint=eastwest;" parent="aL4EJA-Xg9JrNChf85ZP-12" vertex="1">
          <mxGeometry y="52" width="140" height="12" as="geometry" />
        </mxCell>
        <mxCell id="aL4EJA-Xg9JrNChf85ZP-16" value="IncidentDecision&amp;nbsp;" style="swimlane;fontStyle=0;childLayout=stackLayout;horizontal=1;startSize=26;fillColor=none;horizontalStack=0;resizeParent=1;resizeParentMax=0;resizeLast=0;collapsible=1;marginBottom=0;whiteSpace=wrap;html=1;" parent="WIyWlLk6GJQsqaUBKTNV-1" vertex="1">
          <mxGeometry x="460" y="447" width="140" height="142" as="geometry" />
        </mxCell>
        <mxCell id="aL4EJA-Xg9JrNChf85ZP-17" value="+ Description: string" style="text;strokeColor=none;fillColor=none;align=left;verticalAlign=top;spacingLeft=4;spacingRight=4;overflow=hidden;rotatable=0;points=[[0,0.5],[1,0.5]];portConstraint=eastwest;whiteSpace=wrap;html=1;" parent="aL4EJA-Xg9JrNChf85ZP-16" vertex="1">
          <mxGeometry y="26" width="140" height="26" as="geometry" />
        </mxCell>
        <mxCell id="aL4EJA-Xg9JrNChf85ZP-18" value="+ IsWrongDecision: bool" style="text;strokeColor=none;fillColor=none;align=left;verticalAlign=top;spacingLeft=4;spacingRight=4;overflow=hidden;rotatable=0;points=[[0,0.5],[1,0.5]];portConstraint=eastwest;whiteSpace=wrap;html=1;" parent="aL4EJA-Xg9JrNChf85ZP-16" vertex="1">
          <mxGeometry y="52" width="140" height="38" as="geometry" />
        </mxCell>
        <mxCell id="aL4EJA-Xg9JrNChf85ZP-19" value="+ DecisionTime: DateTime" style="text;strokeColor=none;fillColor=none;align=left;verticalAlign=top;spacingLeft=4;spacingRight=4;overflow=hidden;rotatable=0;points=[[0,0.5],[1,0.5]];portConstraint=eastwest;whiteSpace=wrap;html=1;" parent="aL4EJA-Xg9JrNChf85ZP-16" vertex="1">
          <mxGeometry y="90" width="140" height="40" as="geometry" />
        </mxCell>
        <mxCell id="aL4EJA-Xg9JrNChf85ZP-34" value="" style="line;html=1;strokeWidth=1;align=left;verticalAlign=middle;spacingTop=-1;spacingLeft=3;spacingRight=3;rotatable=0;labelPosition=right;points=[];portConstraint=eastwest;" parent="aL4EJA-Xg9JrNChf85ZP-16" vertex="1">
          <mxGeometry y="130" width="140" height="12" as="geometry" />
        </mxCell>
        <mxCell id="aL4EJA-Xg9JrNChf85ZP-49" value="" style="endArrow=open;endFill=1;endSize=12;html=1;rounded=0;entryX=1;entryY=1;entryDx=0;entryDy=0;startArrow=none;startFill=0;startSize=14;exitX=0.25;exitY=0;exitDx=0;exitDy=0;" parent="WIyWlLk6GJQsqaUBKTNV-1" source="H_XOSMSPg-KsRmXVHSaF-0" target="zkfFHV4jXpPFQw0GAbJ--0" edge="1">
          <mxGeometry width="160" relative="1" as="geometry">
            <mxPoint x="290" y="350" as="sourcePoint" />
            <mxPoint x="650" y="770" as="targetPoint" />
          </mxGeometry>
        </mxCell>
        <mxCell id="mf97EDy75ZyZUjqJw_2v-5" value="Team2" style="edgeLabel;html=1;align=center;verticalAlign=middle;resizable=0;points=[];" parent="aL4EJA-Xg9JrNChf85ZP-49" vertex="1" connectable="0">
          <mxGeometry x="0.1276" y="1" relative="1" as="geometry">
            <mxPoint as="offset" />
          </mxGeometry>
        </mxCell>
        <mxCell id="mf97EDy75ZyZUjqJw_2v-8" value="1" style="edgeLabel;html=1;align=center;verticalAlign=middle;resizable=0;points=[];" parent="aL4EJA-Xg9JrNChf85ZP-49" vertex="1" connectable="0">
          <mxGeometry x="0.7953" y="-2" relative="1" as="geometry">
            <mxPoint y="8" as="offset" />
          </mxGeometry>
        </mxCell>
        <mxCell id="mf97EDy75ZyZUjqJw_2v-15" value="1..*" style="edgeLabel;html=1;align=center;verticalAlign=middle;resizable=0;points=[];" parent="aL4EJA-Xg9JrNChf85ZP-49" vertex="1" connectable="0">
          <mxGeometry x="-0.6219" y="-1" relative="1" as="geometry">
            <mxPoint x="9" as="offset" />
          </mxGeometry>
        </mxCell>
        <mxCell id="aL4EJA-Xg9JrNChf85ZP-50" value="" style="endArrow=diamondThin;endFill=1;endSize=24;html=1;rounded=0;entryX=1;entryY=0;entryDx=0;entryDy=0;startArrow=open;startFill=0;startSize=12;exitX=0;exitY=1;exitDx=0;exitDy=0;" parent="WIyWlLk6GJQsqaUBKTNV-1" source="H_XOSMSPg-KsRmXVHSaF-8" target="zkfFHV4jXpPFQw0GAbJ--0" edge="1">
          <mxGeometry width="160" relative="1" as="geometry">
            <mxPoint x="120" y="140" as="sourcePoint" />
            <mxPoint x="650" y="750" as="targetPoint" />
          </mxGeometry>
        </mxCell>
        <mxCell id="cWLmFOJjbFp_lO46u6oo-1" value="1..n" style="edgeLabel;html=1;align=center;verticalAlign=middle;resizable=0;points=[];" parent="aL4EJA-Xg9JrNChf85ZP-50" vertex="1" connectable="0">
          <mxGeometry x="-0.6226" y="-1" relative="1" as="geometry">
            <mxPoint x="-8" y="10" as="offset" />
          </mxGeometry>
        </mxCell>
        <mxCell id="aL4EJA-Xg9JrNChf85ZP-51" value="" style="endArrow=diamondThin;endFill=0;endSize=24;html=1;rounded=0;entryX=1;entryY=0;entryDx=0;entryDy=0;exitX=0;exitY=0;exitDx=0;exitDy=0;startArrow=open;startFill=0;startSize=12;" parent="WIyWlLk6GJQsqaUBKTNV-1" source="aL4EJA-Xg9JrNChf85ZP-16" target="H_XOSMSPg-KsRmXVHSaF-0" edge="1">
          <mxGeometry width="160" relative="1" as="geometry">
            <mxPoint x="430" y="450" as="sourcePoint" />
            <mxPoint x="400" y="390" as="targetPoint" />
          </mxGeometry>
        </mxCell>
        <mxCell id="cWLmFOJjbFp_lO46u6oo-0" value="0..n" style="edgeLabel;html=1;align=center;verticalAlign=middle;resizable=0;points=[];" parent="aL4EJA-Xg9JrNChf85ZP-51" vertex="1" connectable="0">
          <mxGeometry x="-0.8783" y="2" relative="1" as="geometry">
            <mxPoint x="-17" y="5" as="offset" />
          </mxGeometry>
        </mxCell>
        <mxCell id="aL4EJA-Xg9JrNChf85ZP-52" value="" style="endArrow=open;endFill=1;endSize=12;html=1;rounded=0;exitX=1;exitY=1;exitDx=0;exitDy=0;entryX=0;entryY=0;entryDx=0;entryDy=0;" parent="WIyWlLk6GJQsqaUBKTNV-1" source="aL4EJA-Xg9JrNChf85ZP-12" target="H_XOSMSPg-KsRmXVHSaF-4" edge="1">
          <mxGeometry width="160" relative="1" as="geometry">
            <mxPoint x="620" y="700" as="sourcePoint" />
            <mxPoint x="620" y="580" as="targetPoint" />
          </mxGeometry>
        </mxCell>
        <mxCell id="mf97EDy75ZyZUjqJw_2v-40" value="1" style="edgeLabel;html=1;align=center;verticalAlign=middle;resizable=0;points=[];" parent="aL4EJA-Xg9JrNChf85ZP-52" vertex="1" connectable="0">
          <mxGeometry x="0.7354" y="-2" relative="1" as="geometry">
            <mxPoint as="offset" />
          </mxGeometry>
        </mxCell>
        <mxCell id="aL4EJA-Xg9JrNChf85ZP-57" value="" style="endArrow=open;endFill=1;endSize=12;html=1;rounded=0;exitX=1;exitY=1;exitDx=0;exitDy=0;entryX=1;entryY=0;entryDx=0;entryDy=0;startArrow=diamondThin;startFill=0;startSize=24;" parent="WIyWlLk6GJQsqaUBKTNV-1" source="H_XOSMSPg-KsRmXVHSaF-0" target="aL4EJA-Xg9JrNChf85ZP-12" edge="1">
          <mxGeometry width="160" relative="1" as="geometry">
            <mxPoint x="604" y="700" as="sourcePoint" />
            <mxPoint x="660" y="568" as="targetPoint" />
          </mxGeometry>
        </mxCell>
        <mxCell id="aL4EJA-Xg9JrNChf85ZP-58" value="5" style="edgeLabel;html=1;align=center;verticalAlign=middle;resizable=0;points=[];" parent="aL4EJA-Xg9JrNChf85ZP-57" vertex="1" connectable="0">
          <mxGeometry x="0.1621" y="-1" relative="1" as="geometry">
            <mxPoint x="-4" y="23" as="offset" />
          </mxGeometry>
        </mxCell>
        <mxCell id="mf97EDy75ZyZUjqJw_2v-2" value="" style="endArrow=open;endFill=1;endSize=12;html=1;rounded=0;exitX=0;exitY=0;exitDx=0;exitDy=0;entryX=0.75;entryY=1;entryDx=0;entryDy=0;startArrow=none;startFill=0;startSize=14;" parent="WIyWlLk6GJQsqaUBKTNV-1" source="H_XOSMSPg-KsRmXVHSaF-0" target="zkfFHV4jXpPFQw0GAbJ--0" edge="1">
          <mxGeometry width="160" relative="1" as="geometry">
            <mxPoint x="220" y="370" as="sourcePoint" />
            <mxPoint x="380" y="314" as="targetPoint" />
          </mxGeometry>
        </mxCell>
        <mxCell id="mf97EDy75ZyZUjqJw_2v-3" value="Team1" style="edgeLabel;html=1;align=center;verticalAlign=middle;resizable=0;points=[];" parent="mf97EDy75ZyZUjqJw_2v-2" vertex="1" connectable="0">
          <mxGeometry x="0.0131" y="-4" relative="1" as="geometry">
            <mxPoint as="offset" />
          </mxGeometry>
        </mxCell>
        <mxCell id="mf97EDy75ZyZUjqJw_2v-12" value="1" style="edgeLabel;html=1;align=center;verticalAlign=middle;resizable=0;points=[];" parent="mf97EDy75ZyZUjqJw_2v-2" vertex="1" connectable="0">
          <mxGeometry x="0.8033" y="1" relative="1" as="geometry">
            <mxPoint y="14" as="offset" />
          </mxGeometry>
        </mxCell>
        <mxCell id="mf97EDy75ZyZUjqJw_2v-13" value="1..*" style="edgeLabel;html=1;align=center;verticalAlign=middle;resizable=0;points=[];" parent="mf97EDy75ZyZUjqJw_2v-2" vertex="1" connectable="0">
          <mxGeometry x="-0.6594" y="1" relative="1" as="geometry">
            <mxPoint x="4" as="offset" />
          </mxGeometry>
        </mxCell>
        <mxCell id="mf97EDy75ZyZUjqJw_2v-24" value="" style="endArrow=diamondThin;endFill=1;endSize=24;html=1;rounded=0;exitX=1;exitY=0;exitDx=0;exitDy=0;" parent="WIyWlLk6GJQsqaUBKTNV-1" source="H_XOSMSPg-KsRmXVHSaF-0" target="mf97EDy75ZyZUjqJw_2v-27" edge="1">
          <mxGeometry width="160" relative="1" as="geometry">
            <mxPoint x="410" y="330" as="sourcePoint" />
            <mxPoint x="30" y="370" as="targetPoint" />
            <Array as="points" />
          </mxGeometry>
        </mxCell>
        <mxCell id="mf97EDy75ZyZUjqJw_2v-25" value="10..*" style="edgeLabel;html=1;align=center;verticalAlign=middle;resizable=0;points=[];" parent="mf97EDy75ZyZUjqJw_2v-24" vertex="1" connectable="0">
          <mxGeometry x="-0.7981" y="1" relative="1" as="geometry">
            <mxPoint x="-17" y="12" as="offset" />
          </mxGeometry>
        </mxCell>
        <mxCell id="mf97EDy75ZyZUjqJw_2v-27" value="EM" style="swimlane;fontStyle=1;align=center;verticalAlign=top;childLayout=stackLayout;horizontal=1;startSize=26;horizontalStack=0;resizeParent=1;resizeParentMax=0;resizeLast=0;collapsible=1;marginBottom=0;whiteSpace=wrap;html=1;" parent="WIyWlLk6GJQsqaUBKTNV-1" vertex="1">
          <mxGeometry x="270" y="192" width="300" height="100" as="geometry" />
        </mxCell>
        <mxCell id="mf97EDy75ZyZUjqJw_2v-29" value="" style="line;strokeWidth=1;fillColor=none;align=left;verticalAlign=middle;spacingTop=-1;spacingLeft=3;spacingRight=3;rotatable=0;labelPosition=right;points=[];portConstraint=eastwest;strokeColor=inherit;" parent="mf97EDy75ZyZUjqJw_2v-27" vertex="1">
          <mxGeometry y="26" width="300" height="8" as="geometry" />
        </mxCell>
        <mxCell id="mf97EDy75ZyZUjqJw_2v-30" value="+GetGamesWithSpecificReferee(referee: Referee)&lt;span style=&quot;background-color: initial;&quot;&gt;:List&amp;lt;Game&amp;gt;&lt;/span&gt;" style="text;strokeColor=none;fillColor=none;align=left;verticalAlign=top;spacingLeft=4;spacingRight=4;overflow=hidden;rotatable=0;points=[[0,0.5],[1,0.5]];portConstraint=eastwest;whiteSpace=wrap;html=1;" parent="mf97EDy75ZyZUjqJw_2v-27" vertex="1">
          <mxGeometry y="34" width="300" height="36" as="geometry" />
        </mxCell>
        <mxCell id="mf97EDy75ZyZUjqJw_2v-32" value="+ AmountOfIncorrectDecisions(game: Game): int" style="text;strokeColor=none;fillColor=none;align=left;verticalAlign=top;spacingLeft=4;spacingRight=4;overflow=hidden;rotatable=0;points=[[0,0.5],[1,0.5]];portConstraint=eastwest;whiteSpace=wrap;html=1;" parent="mf97EDy75ZyZUjqJw_2v-27" vertex="1">
          <mxGeometry y="70" width="300" height="30" as="geometry" />
        </mxCell>
        <mxCell id="NKwWS79OkRa_sOA0sOPN-0" value="" style="endArrow=open;endFill=1;endSize=12;html=1;rounded=0;entryX=0.75;entryY=0;entryDx=0;entryDy=0;" parent="WIyWlLk6GJQsqaUBKTNV-1" source="aL4EJA-Xg9JrNChf85ZP-16" target="H_XOSMSPg-KsRmXVHSaF-4" edge="1">
          <mxGeometry width="160" relative="1" as="geometry">
            <mxPoint x="560" y="670" as="sourcePoint" />
            <mxPoint x="720" y="670" as="targetPoint" />
          </mxGeometry>
        </mxCell>
        <mxCell id="NKwWS79OkRa_sOA0sOPN-2" value="0..n" style="edgeLabel;html=1;align=center;verticalAlign=middle;resizable=0;points=[];" parent="NKwWS79OkRa_sOA0sOPN-0" vertex="1" connectable="0">
          <mxGeometry x="-0.5778" y="-3" relative="1" as="geometry">
            <mxPoint x="20" y="-3" as="offset" />
          </mxGeometry>
        </mxCell>
        <mxCell id="NKwWS79OkRa_sOA0sOPN-3" value="1" style="edgeLabel;html=1;align=center;verticalAlign=middle;resizable=0;points=[];" parent="NKwWS79OkRa_sOA0sOPN-0" vertex="1" connectable="0">
          <mxGeometry x="0.4598" y="-4" relative="1" as="geometry">
            <mxPoint x="10" as="offset" />
          </mxGeometry>
        </mxCell>
        <mxCell id="mcExF1QBUNsaiKngJeM_-0" value="Alt" style="shape=umlFrame;whiteSpace=wrap;html=1;pointerEvents=0;width=60;height=18;" parent="WIyWlLk6GJQsqaUBKTNV-1" vertex="1">
          <mxGeometry x="930" y="200" width="640" height="230" as="geometry" />
        </mxCell>
        <mxCell id="mcExF1QBUNsaiKngJeM_-1" value="&lt;span style=&quot;font-weight: 700;&quot;&gt;:IncidentReview&lt;/span&gt;" style="shape=umlLifeline;perimeter=lifelinePerimeter;whiteSpace=wrap;html=1;container=1;dropTarget=0;collapsible=0;recursiveResize=0;outlineConnect=0;portConstraint=eastwest;newEdgeStyle={&quot;curved&quot;:0,&quot;rounded&quot;:0};" parent="WIyWlLk6GJQsqaUBKTNV-1" vertex="1">
          <mxGeometry x="1410" y="64" width="100" height="436" as="geometry" />
        </mxCell>
        <mxCell id="mcExF1QBUNsaiKngJeM_-2" value="" style="html=1;points=[[0,0,0,0,5],[0,1,0,0,-5],[1,0,0,0,5],[1,1,0,0,-5]];perimeter=orthogonalPerimeter;outlineConnect=0;targetShapes=umlLifeline;portConstraint=eastwest;newEdgeStyle={&quot;curved&quot;:0,&quot;rounded&quot;:0};" parent="mcExF1QBUNsaiKngJeM_-1" vertex="1">
          <mxGeometry x="45" y="180" width="10" height="80" as="geometry" />
        </mxCell>
        <mxCell id="mcExF1QBUNsaiKngJeM_-3" value="&lt;b&gt;:Em&lt;/b&gt;" style="shape=umlLifeline;perimeter=lifelinePerimeter;whiteSpace=wrap;html=1;container=1;dropTarget=0;collapsible=0;recursiveResize=0;outlineConnect=0;portConstraint=eastwest;newEdgeStyle={&quot;curved&quot;:0,&quot;rounded&quot;:0};" parent="WIyWlLk6GJQsqaUBKTNV-1" vertex="1">
          <mxGeometry x="1080" y="64" width="100" height="436" as="geometry" />
        </mxCell>
        <mxCell id="mcExF1QBUNsaiKngJeM_-4" value="" style="html=1;points=[[0,0,0,0,5],[0,1,0,0,-5],[1,0,0,0,5],[1,1,0,0,-5]];perimeter=orthogonalPerimeter;outlineConnect=0;targetShapes=umlLifeline;portConstraint=eastwest;newEdgeStyle={&quot;curved&quot;:0,&quot;rounded&quot;:0};" parent="mcExF1QBUNsaiKngJeM_-3" vertex="1">
          <mxGeometry x="45" y="78" width="10" height="312" as="geometry" />
        </mxCell>
        <mxCell id="mcExF1QBUNsaiKngJeM_-9" value="Actor" style="shape=umlLifeline;perimeter=lifelinePerimeter;whiteSpace=wrap;html=1;container=1;dropTarget=0;collapsible=0;recursiveResize=0;outlineConnect=0;portConstraint=eastwest;newEdgeStyle={&quot;curved&quot;:0,&quot;rounded&quot;:0};participant=umlActor;size=50;" parent="WIyWlLk6GJQsqaUBKTNV-1" vertex="1">
          <mxGeometry x="960" y="60" width="40" height="440" as="geometry" />
        </mxCell>
        <mxCell id="mcExF1QBUNsaiKngJeM_-25" value="&lt;span style=&quot;font-weight: 700;&quot;&gt;:Game&lt;/span&gt;" style="shape=umlLifeline;perimeter=lifelinePerimeter;whiteSpace=wrap;html=1;container=1;dropTarget=0;collapsible=0;recursiveResize=0;outlineConnect=0;portConstraint=eastwest;newEdgeStyle={&quot;curved&quot;:0,&quot;rounded&quot;:0};" parent="WIyWlLk6GJQsqaUBKTNV-1" vertex="1">
          <mxGeometry x="1241" y="64" width="100" height="436" as="geometry" />
        </mxCell>
        <mxCell id="mcExF1QBUNsaiKngJeM_-26" value="" style="html=1;points=[[0,0,0,0,5],[0,1,0,0,-5],[1,0,0,0,5],[1,1,0,0,-5]];perimeter=orthogonalPerimeter;outlineConnect=0;targetShapes=umlLifeline;portConstraint=eastwest;newEdgeStyle={&quot;curved&quot;:0,&quot;rounded&quot;:0};" parent="mcExF1QBUNsaiKngJeM_-25" vertex="1">
          <mxGeometry x="45" y="80" width="10" height="220" as="geometry" />
        </mxCell>
        <mxCell id="u3E4W7TIxe2X-cfS7fvt-0" value="" style="endArrow=open;endFill=1;endSize=12;html=1;rounded=0;" parent="WIyWlLk6GJQsqaUBKTNV-1" source="mcExF1QBUNsaiKngJeM_-9" edge="1">
          <mxGeometry width="160" relative="1" as="geometry">
            <mxPoint x="920.810344827586" y="170" as="sourcePoint" />
            <mxPoint x="1125" y="170" as="targetPoint" />
            <Array as="points">
              <mxPoint x="1040" y="170" />
            </Array>
          </mxGeometry>
        </mxCell>
        <mxCell id="u3E4W7TIxe2X-cfS7fvt-1" value="GetAmountOfTotalIncorrectDecisions()" style="edgeLabel;html=1;align=center;verticalAlign=middle;resizable=0;points=[];" parent="u3E4W7TIxe2X-cfS7fvt-0" vertex="1" connectable="0">
          <mxGeometry x="-0.7341" y="-3" relative="1" as="geometry">
            <mxPoint x="31" y="-16" as="offset" />
          </mxGeometry>
        </mxCell>
        <mxCell id="u3E4W7TIxe2X-cfS7fvt-5" value="" style="endArrow=open;endFill=1;endSize=12;html=1;rounded=0;" parent="WIyWlLk6GJQsqaUBKTNV-1" edge="1">
          <mxGeometry width="160" relative="1" as="geometry">
            <mxPoint x="1135" y="180" as="sourcePoint" />
            <mxPoint x="1286" y="180" as="targetPoint" />
            <Array as="points" />
          </mxGeometry>
        </mxCell>
        <mxCell id="u3E4W7TIxe2X-cfS7fvt-6" value="prüfe (Date &amp;lt; 48h)" style="edgeLabel;html=1;align=center;verticalAlign=middle;resizable=0;points=[];" parent="u3E4W7TIxe2X-cfS7fvt-5" vertex="1" connectable="0">
          <mxGeometry x="-0.7341" y="-3" relative="1" as="geometry">
            <mxPoint x="31" y="-16" as="offset" />
          </mxGeometry>
        </mxCell>
        <mxCell id="u3E4W7TIxe2X-cfS7fvt-7" value="loop" style="shape=umlFrame;whiteSpace=wrap;html=1;pointerEvents=0;width=60;height=20;" parent="WIyWlLk6GJQsqaUBKTNV-1" vertex="1">
          <mxGeometry x="1050" y="230" width="490" height="110" as="geometry" />
        </mxCell>
        <mxCell id="u3E4W7TIxe2X-cfS7fvt-8" value="" style="endArrow=open;endFill=1;endSize=12;html=1;rounded=0;" parent="WIyWlLk6GJQsqaUBKTNV-1" source="mcExF1QBUNsaiKngJeM_-4" edge="1">
          <mxGeometry width="160" relative="1" as="geometry">
            <mxPoint x="1139.996666666667" y="250.00000000000014" as="sourcePoint" />
            <mxPoint x="1286" y="249.99999999999997" as="targetPoint" />
            <Array as="points" />
          </mxGeometry>
        </mxCell>
        <mxCell id="u3E4W7TIxe2X-cfS7fvt-9" value="Hole IncidentDecisions" style="edgeLabel;html=1;align=center;verticalAlign=middle;resizable=0;points=[];" parent="u3E4W7TIxe2X-cfS7fvt-8" vertex="1" connectable="0">
          <mxGeometry x="-0.7341" y="-3" relative="1" as="geometry">
            <mxPoint x="35" y="-11" as="offset" />
          </mxGeometry>
        </mxCell>
        <mxCell id="u3E4W7TIxe2X-cfS7fvt-10" value="" style="endArrow=open;endFill=1;endSize=12;html=1;rounded=0;" parent="WIyWlLk6GJQsqaUBKTNV-1" edge="1">
          <mxGeometry width="160" relative="1" as="geometry">
            <mxPoint x="1296" y="260" as="sourcePoint" />
            <mxPoint x="1455" y="260" as="targetPoint" />
            <Array as="points" />
          </mxGeometry>
        </mxCell>
        <mxCell id="u3E4W7TIxe2X-cfS7fvt-11" value="Prüfe IsWrongDecision" style="edgeLabel;html=1;align=center;verticalAlign=middle;resizable=0;points=[];" parent="u3E4W7TIxe2X-cfS7fvt-10" vertex="1" connectable="0">
          <mxGeometry x="-0.7341" y="-3" relative="1" as="geometry">
            <mxPoint x="37" y="-15" as="offset" />
          </mxGeometry>
        </mxCell>
        <mxCell id="u3E4W7TIxe2X-cfS7fvt-13" value="" style="endArrow=open;endSize=12;dashed=1;html=1;rounded=0;" parent="WIyWlLk6GJQsqaUBKTNV-1" source="mcExF1QBUNsaiKngJeM_-2" target="mcExF1QBUNsaiKngJeM_-26" edge="1">
          <mxGeometry width="160" relative="1" as="geometry">
            <mxPoint x="1455.5" y="292" as="sourcePoint" />
            <mxPoint x="1286" y="292" as="targetPoint" />
          </mxGeometry>
        </mxCell>
        <mxCell id="u3E4W7TIxe2X-cfS7fvt-17" value="true/false" style="edgeLabel;html=1;align=center;verticalAlign=middle;resizable=0;points=[];" parent="u3E4W7TIxe2X-cfS7fvt-13" vertex="1" connectable="0">
          <mxGeometry x="0.076" y="-1" relative="1" as="geometry">
            <mxPoint x="16" y="-1" as="offset" />
          </mxGeometry>
        </mxCell>
        <mxCell id="u3E4W7TIxe2X-cfS7fvt-14" value="Liste falscher Entscheidungen" style="endArrow=open;endSize=12;dashed=1;html=1;rounded=0;" parent="WIyWlLk6GJQsqaUBKTNV-1" edge="1">
          <mxGeometry x="-0.1799" y="-10" width="160" relative="1" as="geometry">
            <mxPoint x="1286" y="320" as="sourcePoint" />
            <mxPoint x="1135" y="320" as="targetPoint" />
            <mxPoint as="offset" />
          </mxGeometry>
        </mxCell>
        <mxCell id="u3E4W7TIxe2X-cfS7fvt-15" value="" style="endArrow=open;endSize=12;dashed=1;html=1;rounded=0;" parent="WIyWlLk6GJQsqaUBKTNV-1" edge="1">
          <mxGeometry width="160" relative="1" as="geometry">
            <mxPoint x="1125.19" y="359.30999999999995" as="sourcePoint" />
            <mxPoint x="980.0003448275863" y="359.30999999999995" as="targetPoint" />
          </mxGeometry>
        </mxCell>
        <mxCell id="u3E4W7TIxe2X-cfS7fvt-18" value="Summe falscher Entscheidungen" style="edgeLabel;html=1;align=center;verticalAlign=middle;resizable=0;points=[];" parent="u3E4W7TIxe2X-cfS7fvt-15" vertex="1" connectable="0">
          <mxGeometry x="0.254" y="2" relative="1" as="geometry">
            <mxPoint x="26" y="-15" as="offset" />
          </mxGeometry>
        </mxCell>
        <mxCell id="u3E4W7TIxe2X-cfS7fvt-19" value="[älter als 48 h]" style="text;html=1;align=center;verticalAlign=middle;resizable=0;points=[];autosize=1;strokeColor=none;fillColor=none;" parent="WIyWlLk6GJQsqaUBKTNV-1" vertex="1">
          <mxGeometry x="920" y="226" width="100" height="30" as="geometry" />
        </mxCell>
        <mxCell id="u3E4W7TIxe2X-cfS7fvt-20" value="" style="endArrow=open;endSize=12;dashed=1;html=1;rounded=0;" parent="WIyWlLk6GJQsqaUBKTNV-1" edge="1">
          <mxGeometry width="160" relative="1" as="geometry">
            <mxPoint x="1125" y="410" as="sourcePoint" />
            <mxPoint x="979.8103448275863" y="410" as="targetPoint" />
          </mxGeometry>
        </mxCell>
        <mxCell id="u3E4W7TIxe2X-cfS7fvt-21" value="0" style="edgeLabel;html=1;align=center;verticalAlign=middle;resizable=0;points=[];" parent="u3E4W7TIxe2X-cfS7fvt-20" vertex="1" connectable="0">
          <mxGeometry x="0.254" y="2" relative="1" as="geometry">
            <mxPoint x="-34" y="-15" as="offset" />
          </mxGeometry>
        </mxCell>
        <mxCell id="u3E4W7TIxe2X-cfS7fvt-22" value="[jünger als 48h]" style="text;html=1;align=center;verticalAlign=middle;resizable=0;points=[];autosize=1;strokeColor=none;fillColor=none;" parent="WIyWlLk6GJQsqaUBKTNV-1" vertex="1">
          <mxGeometry x="920" y="370" width="110" height="30" as="geometry" />
        </mxCell>
      </root>
    </mxGraphModel>
  </diagram>
</mxfile>
